<svg xmlns="http://www.w3.org/2000/svg" xmlns:xlink="http://www.w3.org/1999/xlink" version="1.1" id="Layer_1" x="0px" y="0px" viewBox="0 0 100 100" enable-background="new 0 0 100 100" xml:space="preserve" height="100px" width="100px">
<path d="M79.4,28.8c-0.2-0.6-0.8-0.9-1.4-0.9c0,0,0,0,0,0l-5.8,0l0-5.8c0-0.6-0.4-1.2-0.9-1.4c-0.6-0.2-1.2-0.1-1.7,0.3l-7,7  c-0.3,0.3-0.4,0.7-0.4,1.1l-0.1,6.7l-6.5,6.5C51.9,39,47,37,41.7,37C30,37,20.5,46.5,20.5,58.2S30,79.4,41.7,79.4  s21.2-9.5,21.2-21.2c0-5.3-1.9-10.1-5.1-13.8l6.4-6.4L71,38c0.4,0,0.8-0.2,1.1-0.4l7-7C79.5,30.1,79.6,29.4,79.4,28.8z M65.2,29.8  l3.9-3.9l0,2.9l-3.9,3.9L65.2,29.8z M59.8,58.2c0,10-8.1,18.1-18.1,18.1s-18.1-8.1-18.1-18.1s8.1-18.1,18.1-18.1  c4.5,0,8.6,1.6,11.8,4.4l-3.3,3.3c-2.3-1.9-5.3-3-8.5-3c-7.5,0-13.5,6.1-13.5,13.5s6.1,13.5,13.5,13.5s13.5-6.1,13.5-13.5  c0-3.1-1.1-6-2.9-8.3l3.3-3.3C58.2,49.8,59.8,53.8,59.8,58.2z M52.1,58.2c0,5.8-4.7,10.5-10.5,10.5S31.2,64,31.2,58.2  s4.7-10.5,10.5-10.5c2.4,0,4.6,0.8,6.3,2.1l-3.3,3.3c-0.9-0.5-1.9-0.8-3-0.8c-3.2,0-5.9,2.6-5.9,5.9s2.6,5.9,5.9,5.9  s5.9-2.6,5.9-5.9c0-1-0.3-2-0.7-2.8l3.3-3.3C51.4,53.8,52.1,55.9,52.1,58.2z M44.5,58.2c0,1.5-1.3,2.8-2.8,2.8s-2.8-1.3-2.8-2.8  s1.3-2.8,2.8-2.8c0.2,0,0.5,0,0.7,0.1l-1.7,1.7c-0.6,0.6-0.6,1.6,0,2.2c0.3,0.3,0.7,0.4,1.1,0.4s0.8-0.1,1.1-0.4l1.6-1.6  C44.5,57.9,44.5,58.1,44.5,58.2z M70.3,34.9l-3,0l3.9-3.9l3,0L70.3,34.9z"/>
</svg>